<?xml version="1.0" encoding="UTF-8" standalone="no" ?>
<!DOCTYPE svg PUBLIC "-//W3C//DTD SVG 1.1//EN" "http://www.w3.org/Graphics/SVG/1.1/DTD/svg11.dtd">
<svg xmlns="http://www.w3.org/2000/svg" xmlns:xlink="http://www.w3.org/1999/xlink" version="1.1" width="2000" height="1297.2973" viewBox="0 -0.000005399999736255268 7991.999999999999 5184.0000107999995" xml:space="preserve">
<desc>Created with Fabric.js 5.3.0</desc>
<defs>
</defs>
<g transform="matrix(10.6812104803 0 0 6.9282044771 3993.2123134896 2592.3709809065)" id="TSLIDPHOz8tZkCY1UmDdg"  >
<path style="stroke: rgb(0,11,79); stroke-width: 4; stroke-dasharray: none; stroke-linecap: butt; stroke-dashoffset: 0; stroke-linejoin: miter; stroke-miterlimit: 4; fill: none; fill-rule: nonzero; opacity: 1;" vector-effect="non-scaling-stroke"  transform=" translate(0, 0)" d="M -373.91304 -373.91304 L 373.91304 -373.91304 L 373.91304 373.91304 L -373.91304 373.91304 z" stroke-linecap="round" />
</g>
<g transform="matrix(-1.0118366208 0 0 6.651630819 3995.9999 2592.6280218601)" id="026bavD089uBsSGXCkmRw"  >
<path style="stroke: rgb(0,11,79); stroke-width: 4; stroke-dasharray: none; stroke-linecap: butt; stroke-dashoffset: 0; stroke-linejoin: miter; stroke-miterlimit: 4; fill: none; fill-rule: nonzero; opacity: 1;" vector-effect="non-scaling-stroke"  transform=" translate(0, 0)" d="M 0 -389.13044 L 0 -389.13044 L 0 389.13044 L 0 389.13044 z" stroke-linecap="round" />
</g>
<g transform="matrix(1.0274749662 0 0 2.4676517619 643.0550313691 2589.5282963038)" id="IQeMj72PSfv0OePoVGhxi"  >
<path style="stroke: rgb(0,11,79); stroke-width: 4; stroke-dasharray: none; stroke-linecap: butt; stroke-dashoffset: 0; stroke-linejoin: miter; stroke-miterlimit: 4; fill: none; fill-rule: nonzero; opacity: 1;" vector-effect="non-scaling-stroke"  transform=" translate(0, 0)" d="M -623.91304 -623.91304 L 623.91304 -623.91304 L 623.91304 623.91304 L -623.91304 623.91304 z" stroke-linecap="round" />
</g>
<g transform="matrix(1.0274749662 0 0 2.4676517619 7348.1283833924 2598.3998875716)" id="j48M6ZUhsIv8UoGfQscfa"  >
<path style="stroke: rgb(0,11,79); stroke-width: 4; stroke-dasharray: none; stroke-linecap: butt; stroke-dashoffset: 0; stroke-linejoin: miter; stroke-miterlimit: 4; fill: none; fill-rule: nonzero; opacity: 1;" vector-effect="non-scaling-stroke"  transform=" translate(0, 0)" d="M -623.91304 -623.91304 L 623.91304 -623.91304 L 623.91304 623.91304 L -623.91304 623.91304 z" stroke-linecap="round" />
</g>
<g transform="matrix(-0.9806857464 0 0 -1 6583.3497578228 2597.4153420215)" id="myON5qjNzMfLXS8VeKome"  >
<path style="stroke: rgb(0,11,79); stroke-width: 4; stroke-dasharray: none; stroke-linecap: butt; stroke-dashoffset: 0; stroke-linejoin: miter; stroke-miterlimit: 4; fill: none; fill-rule: nonzero; opacity: 1;" vector-effect="non-scaling-stroke"  transform=" translate(-126.178075, -538.81147)" d="M 252.35615 538.81147 C 252.35615 755.2417399999999 154.19776000000002 948.8852400000001 0 1077.62294 L 0 0 C 154.19776 128.7377 252.35615 322.3812 252.35615 538.81147 z" stroke-linecap="round" />
</g>
<g transform="matrix(1 0 0 1 3996 2592)" id="ntHnKEWl1wTidv1XDzG07"  >
<path style="stroke: rgb(0,11,79); stroke-width: 4; stroke-dasharray: none; stroke-linecap: butt; stroke-dashoffset: 0; stroke-linejoin: miter; stroke-miterlimit: 4; fill: none; fill-rule: nonzero; opacity: 1;" vector-effect="non-scaling-stroke"  transform=" translate(-719.5652116072, -719.5652116072)" d="M 719.56521 0 C 1116.76521 0 1439.13042 322.36522 1439.13042 719.56521 C 1439.13042 1116.76521 1116.7651999999998 1439.13042 719.56521 1439.13042 C 322.36521 1439.13042 0 1116.7651999999998 0 719.56521 C 0 322.36521 322.36522 0 719.56521 0 z" stroke-linecap="round" />
</g>
<g transform="matrix(0.9806857464 0 0 1 1407.2713264504 2598.6507099534)" id="La2rgVTD9JSWYSm2gAoAo"  >
<path style="stroke: rgb(0,11,79); stroke-width: 4; stroke-dasharray: none; stroke-linecap: butt; stroke-dashoffset: 0; stroke-linejoin: miter; stroke-miterlimit: 4; fill: none; fill-rule: nonzero; opacity: 1;" vector-effect="non-scaling-stroke"  transform=" translate(-126.178075, -538.81147)" d="M 252.35615 538.81147 C 252.35615 755.2417399999999 154.19776000000002 948.8852400000001 0 1077.62294 L 0 0 C 154.19776 128.7377 252.35615 322.3812 252.35615 538.81147 z" stroke-linecap="round" />
</g>
</svg>