<?xml version="1.0" encoding="UTF-8" standalone="no" ?>
<!DOCTYPE svg PUBLIC "-//W3C//DTD SVG 1.1//EN" "http://www.w3.org/Graphics/SVG/1.1/DTD/svg11.dtd">
<svg xmlns="http://www.w3.org/2000/svg" xmlns:xlink="http://www.w3.org/1999/xlink" version="1.1" width="500" height="388" viewBox="0 0 500 388" xml:space="preserve">
<desc>Created with Fabric.js 5.3.0</desc>
<defs>
</defs>
<g transform="matrix(0.8286977952 0 0 0.828697901 249.8383739004 194.0595339046)" id="cY3A187P0GLL9Pp5GUoMm"  >
<path style="stroke: none; stroke-width: 1; stroke-dasharray: none; stroke-linecap: butt; stroke-dashoffset: 0; stroke-linejoin: miter; stroke-miterlimit: 4; fill: rgb(255,255,0); fill-rule: nonzero; opacity: 1;"  transform=" translate(-300.0010433886, -300.0007034852)" d="M 146.858 304.189 C 149.471 308.281 213.375 404.708 434.313 428.185 C 437.87399999999997 428.552 441.01599999999996 426.337 441.91499999999996 422.959 C 442.07699999999994 422.348 442.157 421.737 442.157 421.134 C 475.21799999999996 424.887 502.817 426.204 520.155 426.654 C 534.2719999999999 427.647 539.925 426.86 540.52 426.758 C 544.1999999999999 426.18399999999997 546.805 422.864 546.489 419.155 C 546.178 415.453 543.3090000000001 412.568 539.327 412.664 C 538.848 412.671 530.835 412.74399999999997 517.257 412.259 C 493.1089999999999 410.19800000000004 445.044 402.875 357.4409999999999 378.861 C 356.8819999999999 378.715 356.3239999999999 378.55199999999996 355.7709999999999 378.39799999999997 L 228.0589999999999 322.05899999999997 C 187.4489999999999 297.986 153.38099999999991 272.183 129.8149999999999 252.74599999999998 C 172.5449999999999 262.44599999999997 224.42299999999992 258.59 228.8389999999999 258.236 C 229.28799999999993 258.207 229.7369999999999 258.133 230.17899999999992 258.015 C 230.9739999999999 257.816 231.7239999999999 257.471 232.38699999999992 257.029 C 233.2839999999999 256.418 234.04999999999993 255.601 234.60199999999992 254.615 C 234.8969999999999 254.085 235.13199999999992 253.511 235.28699999999992 252.907 C 235.52199999999993 251.98000000000002 235.56599999999992 251.037 235.4339999999999 250.139 C 235.31599999999992 249.315 235.0579999999999 248.535 234.67499999999993 247.821 C 234.13799999999992 246.798 233.34299999999993 245.907 232.34199999999993 245.245 C 232.00399999999993 245.017 231.65099999999993 244.826 231.26799999999992 244.649 C 118.605 193.53 21.965 70.561 21.001 69.325 C 19.301000000000002 67.146 16.489 66.146 13.811 66.771 C 11.117 67.393 9.027000000000001 69.52 8.468 72.221 C -31.51 262.298 82.992 383.497 84.154 384.697 C 86.466 387.089 90.116 387.559 92.957 385.823 C 95.79799999999999 384.07899999999995 97.041 380.604 95.95899999999999 377.462 C 84.52199999999999 344.241 88.48199999999999 319.89599999999996 92.92799999999998 306.486 C 107.80899999999998 330.993 129.601 352.645 155.37399999999997 371.707 C 154.43199999999996 372.09 153.54899999999998 372.635 152.81999999999996 373.444 C 150.18499999999997 376.343 150.39799999999997 380.81800000000004 153.29899999999998 383.45300000000003 C 157.56799999999998 387.33900000000006 260.66099999999994 478.923 503.06699999999995 509.87700000000007 C 503.36799999999994 509.9220000000001 503.67099999999994 509.93700000000007 503.97099999999995 509.93700000000007 C 507.4889999999999 509.93700000000007 510.54299999999995 507.32400000000007 510.99999999999994 503.74000000000007 C 511.49199999999996 499.85400000000004 508.74799999999993 496.30600000000004 504.86099999999993 495.80600000000004 C 497.9939999999999 494.93800000000005 491.26699999999994 493.99500000000006 484.62299999999993 493.01700000000005 C 487.98599999999993 492.89200000000005 490.8789999999999 490.42600000000004 491.3789999999999 486.99000000000007 C 491.93799999999993 483.1480000000001 489.3029999999999 479.5710000000001 485.4769999999999 478.9680000000001 C 484.46899999999994 478.8060000000001 451.9669999999999 473.47800000000007 405.9049999999999 461.82000000000005 C 403.8289999999999 461.20200000000006 401.73099999999994 460.5690000000001 399.67799999999994 459.922 C 427.58599999999996 461.30600000000004 446.60999999999996 459.76000000000005 448.57399999999996 459.583 C 452.12299999999993 459.274 454.883 456.39000000000004 455.04499999999996 452.83500000000004 C 455.19899999999996 449.28000000000003 452.703 446.15900000000005 449.20099999999996 445.54100000000005 L 336.48 425.455 C 256.966 411.287 174.11800000000002 336.344 134.75900000000001 296.40999999999997 L 145.798 301.282 C 145.923 302.291 146.277 303.284 146.858 304.189 z M 221.846 334.828 C 255.303 354.589 293.073 373.193 333.08 386.33099999999996 C 279.2 372.22299999999996 224.45799999999997 350.56999999999994 182.2 317.33399999999995 L 221.846 334.828 z M 410.355 477.862 C 421.933 481.11600000000004 433.73 484.01500000000004 445.697 486.53200000000004 C 347.65999999999997 468.288 277.102 440.03400000000005 230.972 416.25500000000005 C 292.823 445.893 360.576 465.778 410.355 477.862 z M 75.161 321.846 C 75.043 321.69100000000003 72.732 318.173 69.14 311.66700000000003 C 70.892 312.43300000000005 72.923 312.47700000000003 74.778 311.66700000000003 C 75.852 311.196 76.676 310.43800000000005 77.38300000000001 309.57700000000006 C 76.48500000000001 313.26400000000007 75.72000000000001 317.37800000000004 75.17500000000001 321.88200000000006 C 75.175 321.875 75.167 321.853 75.161 321.846 z M 64.033 194.825 C 89.769 217.956 114.469 231.344 128.32 237.791 C 114.204 234.19899999999998 102.05999999999999 229.003 94.53099999999999 221.585 C 93.15499999999999 220.216 91.35199999999999 219.53900000000002 89.556 219.53900000000002 C 87.731 219.53900000000002 85.898 220.246 84.50699999999999 221.64300000000003 C 83.70499999999998 222.46000000000004 83.13799999999999 223.42400000000004 82.80699999999999 224.44000000000003 C 74.984 213.931 68.817 203.796 64.033 194.825 z M 147.727 239.837 C 149.633 240.691 151.532 241.566 153.453 242.34699999999998 C 151.112 242.05299999999997 148.758 241.77999999999997 146.446 241.41899999999998 C 146.968 241.007 147.33 240.403 147.727 239.837 z M 35.109 137.225 C 34.064 137.159 33.004000000000005 137.313 31.988000000000003 137.733 C 31.672000000000004 135.746 31.326000000000004 133.811 31.031000000000002 131.79 C 32.335 133.63 33.726 135.425 35.109 137.225 z M 32.99 265.838 C 54.617 312.86 44 273 63.974 330.566 C 64.702 332.664 67.381 333.186 69.435 333.186 C 70.936 333.186 72.467 332.707 73.762 331.714 C 74.06400000000001 331.485 74.226 331.169 74.476 330.904 C 74.233 336.85 74.366 343.283 75.175 350.304 C 55.333 341 36.667 273.833 32.99 265.838 z M 78.884 304.013 C 78.863 303.86699999999996 78.899 303.719 78.863 303.55699999999996 L 77.891 299.376 C 78.72200000000001 299.52299999999997 79.577 299.58299999999997 80.415 299.436 C 79.9 300.849 79.385 302.379 78.884 304.013 z M 95.282 277.989 C 93.48599999999999 279.373 92.53 281.46299999999997 92.52199999999999 283.59 C 90.04199999999999 283.58299999999997 87.81899999999999 284.709 86.46499999999999 286.73299999999995 C 86.347 286.90999999999997 85.89099999999999 287.60099999999994 85.22899999999998 288.77899999999994 C 85.16899999999998 288.6909999999999 85.11099999999999 288.58799999999997 85.04399999999998 288.49999999999994 C 84.84599999999999 288.2049999999999 77.47099999999998 276.94499999999994 68.02799999999999 256.7869999999999 L 66.14399999999999 248.64699999999993 C 75.91699999999999 259.59099999999995 87.22899999999998 269.4309999999999 97.57 276.81199999999995 C 96.769 277.055 95.989 277.445 95.282 277.989 z M 133.898 280.528 C 132.57399999999998 275.869 127.267 270.055 116.198 260.458 C 113.03399999999999 257.72 110.002 254.93100000000004 107.101 252.12700000000004 C 118.656 262.10600000000005 134.295 274.98600000000005 153.165 289.028 L 133.898 280.528 z M 592.816 533.413 C 347.423 530.308 267.07800000000003 477.42900000000003 263.77400000000006 475.184 C 260.53600000000006 472.976 259.70400000000006 468.56100000000004 261.91200000000003 465.32300000000004 C 264.105 462.08500000000004 268.514 461.25300000000004 271.74500000000006 463.446 C 272.53200000000004 463.968 352.89900000000006 516.193 592.9950000000001 519.232 C 596.9090000000001 519.284 600.0440000000001 522.4929999999999 600.0010000000001 526.408 C 599.9480000000001 530.302 596.7840000000001 533.414 592.9050000000001 533.414 C 592.875 533.413 592.846 533.413 592.816 533.413 z" stroke-linecap="round" />
</g>
</svg>