<?xml version="1.0" encoding="UTF-8" standalone="no" ?>
<!DOCTYPE svg PUBLIC "-//W3C//DTD SVG 1.1//EN" "http://www.w3.org/Graphics/SVG/1.1/DTD/svg11.dtd">
<svg xmlns="http://www.w3.org/2000/svg" xmlns:xlink="http://www.w3.org/1999/xlink" version="1.1" width="500" height="500" viewBox="0 0 500 500" xml:space="preserve">
<desc>Created with Fabric.js 5.3.0</desc>
<defs>
</defs>
<g transform="matrix(0.6300836293 0 0 0.6300836293 247.5369458128 259.5443349754)" id="gUQuYbnG8Vd2NDCRzs7FQ"  >
<g style=""   >
		<g transform="matrix(1 0 0 1 0 0)" id="RSf5RmBw2xqSlmYEG8Vb2"  >
<path style="stroke: none; stroke-width: 1; stroke-dasharray: none; stroke-linecap: butt; stroke-dashoffset: 0; stroke-linejoin: miter; stroke-miterlimit: 4; fill: rgb(190,190,190); fill-rule: nonzero; opacity: 1;"  transform=" translate(-82.177, -82.177)" d="M 0 82.177 C 0 36.791900000000005 36.7919 0 82.177 0 C 127.56210000000002 0 164.354 36.7919 164.354 82.177 C 164.354 127.56210000000002 127.56210000000002 164.354 82.177 164.354 C 36.791900000000005 164.354 0 127.56210000000002 0 82.177 z" stroke-linecap="round" />
</g>
		<g transform="matrix(1 0 0 1 0 0)" id="yykUC9XEbkMKFLzG20qH_"  >
<path style="stroke: none; stroke-width: 1; stroke-dasharray: none; stroke-linecap: butt; stroke-dashoffset: 0; stroke-linejoin: miter; stroke-miterlimit: 4; fill: rgb(70,70,70); fill-rule: nonzero; opacity: 1;"  transform=" translate(-300.007, -300)" d="M 300.007 85.5 C 181.542 85.5 85.507 181.536 85.507 300 C 85.507 418.464 181.542 514.5 300.007 514.5 C 418.473 514.5 514.5070000000001 418.464 514.5070000000001 300 C 514.5070000000001 181.536 418.473 85.5 300.007 85.5 z M 300.007 382.177 C 254.622 382.177 217.82999999999998 345.385 217.82999999999998 300 C 217.82999999999998 254.614 254.62199999999999 217.82299999999998 300.007 217.82299999999998 C 345.39300000000003 217.82299999999998 382.184 254.61399999999998 382.184 300 C 382.184 345.385 345.393 382.177 300.007 382.177 z" stroke-linecap="round" />
</g>
</g>
</g>
</svg>