<?xml version="1.0" encoding="UTF-8" standalone="no" ?>
<!DOCTYPE svg PUBLIC "-//W3C//DTD SVG 1.1//EN" "http://www.w3.org/Graphics/SVG/1.1/DTD/svg11.dtd">
<svg xmlns="http://www.w3.org/2000/svg" xmlns:xlink="http://www.w3.org/1999/xlink" version="1.1" width="500" height="500" viewBox="0 0 500 500" xml:space="preserve">
<desc>Created with Fabric.js 5.3.0</desc>
<defs>
</defs>
<g transform="matrix(0.4382012511 0 0 0.4382012511 250 281.9552787184)" id="LGDa9MnUP9zM1SfqEwupt"  >
<path style="stroke: none; stroke-width: 1; stroke-dasharray: none; stroke-linecap: butt; stroke-dashoffset: 0; stroke-linejoin: miter; stroke-miterlimit: 4; fill: rgb(28,105,129); fill-rule: nonzero; opacity: 1;"  transform=" translate(-300.5647151623, -299.7656578046)" d="M 596.815 357.225 C 596.7840000000001 356.44 596.33 355.95500000000004 595.782 355.627 C 583.981 339.597 566.0260000000001 327.318 550.707 314.80600000000004 C 534.681 301.71500000000003 518.389 288.95700000000005 502.69599999999997 275.46700000000004 C 502.52799999999996 274.28600000000006 501.69599999999997 273.25200000000007 500.34799999999996 273.10200000000003 C 484.23199999999997 255.69100000000003 464.799 240.84700000000004 446.99499999999995 225.23200000000003 C 442.80099999999993 221.55400000000003 438.64799999999997 217.83000000000004 434.46099999999996 214.14400000000003 C 434.10499999999996 213.60600000000002 433.65399999999994 213.16000000000003 433.066 212.91000000000003 C 416.7 198.497 400.34299999999996 184.07200000000003 384.063 169.562 C 339.986 130.277 295.732 91.25 251.188 52.5 C 250.26899999999998 51.7 249.178 51.88 248.421 52.46 C 167.556 50.374 84.397 65.812 5.215 80.574 C 4.006 80.79899999999999 3.567 81.708 3.6399999999999997 82.637 C 3.59 83.043 3.719 83.454 4.0169999999999995 83.848 C 3.7759999999999994 109.07300000000001 3.2689999999999992 134.298 2.9419999999999993 159.524 C 1.8989999999999994 160.281 1.3299999999999992 161.775 2.5049999999999994 162.791 C 2.6309999999999993 162.9 2.7629999999999995 163.004 2.8889999999999993 163.113 C 2.8799999999999994 163.82 2.865999999999999 164.528 2.8569999999999993 165.235 C 2.6279999999999992 184.89200000000002 -0.36600000000000055 207.17100000000002 3.829999999999999 226.452 C 3.8889999999999993 226.724 4.091999999999999 226.868 4.239999999999999 227.064 C 4.308999999999999 227.161 4.267999999999999 227.26399999999998 4.358 227.358 C 42.808 267.379 84.74300000000001 304.09000000000003 126.024 341.13300000000004 C 146.907 359.87300000000005 167.82999999999998 378.56800000000004 188.686 397.336 C 210.42600000000002 416.901 231.471 438.19 255.13 455.47 C 255.188 455.711 255.179 455.97400000000005 255.244 456.21200000000005 C 255.762 458.11800000000005 257.328 458.619 258.797 458.27500000000003 C 273.60400000000004 474.369 289.90700000000004 489.211 305.697 504.31500000000005 C 320.694 518.658 335.352 534.4830000000001 351.995 546.9280000000001 C 353.657 548.1710000000002 355.357 547.4550000000002 356.30400000000003 546.0950000000001 C 395.71200000000005 536.9780000000002 435.303 528.5870000000001 474.91900000000004 520.4340000000002 C 514.9670000000001 512.1910000000001 556.1 506.2810000000002 595.625 495.8300000000002 C 597.596 495.3090000000002 598.206 493.14400000000023 597.693 491.4700000000002 C 599.7909999999999 482.2280000000002 598.77 473.0340000000002 598.257 463.5710000000002 C 597.56 450.7040000000002 598.665 438.3290000000002 599.2689999999999 425.4900000000002 C 600.338 402.806 597.714 379.889 596.815 357.225 z M 546.416 319.097 C 560.5400000000001 331.19 574.061 345.868 589.7 356.13 C 582.404 356.783 575.1220000000001 357.685 567.854 358.807 C 568.172 358.25800000000004 568.315 357.622 567.903 357.028 C 548.732 329.343 513.892 307.437 486.059 289.19300000000004 C 483.14300000000003 287.28100000000006 480.471 291.927 483.33700000000005 293.84900000000005 C 499.357 304.59000000000003 514.856 316.04200000000003 529.606 328.47900000000004 C 541.447 338.463 552.095 350.444 564.809 359.249 C 533.51 364.30600000000004 502.41099999999994 372.619 471.12299999999993 376.918 C 434.90899999999993 381.89300000000003 398.74699999999996 385.231 362.7539999999999 391.874 C 332.5929999999999 363.937 299.5869999999999 339.005 270.0149999999999 310.375 C 310.99199999999985 303.108 352.11699999999985 297.303 393.4499999999999 292.433 C 415.6399999999999 289.818 438.7039999999999 288.46299999999997 461.34499999999986 285.663 C 461.25399999999985 286.302 461.43199999999985 286.981 462.08799999999985 287.565 C 488.18099999999987 310.825 513.5689999999998 338.124 542.7239999999998 357.479 C 544.4909999999999 358.652 546.1369999999998 356.138 544.8769999999998 354.688 C 522.3189999999998 328.71799999999996 492.63399999999984 307.417 466.55499999999984 284.945 C 477.92399999999986 283.413 489.1689999999998 281.49399999999997 500.1039999999998 278.771 C 515.477 292.292 530.864 305.781 546.416 319.097 z M 447.266 235.665 C 461.85400000000004 248.54999999999998 476.459 262.27 492.52700000000004 273.419 C 456.93600000000004 275.287 420.51200000000006 282.341 385.26700000000005 286.85699999999997 C 345.34000000000003 291.97099999999995 305.63000000000005 298.625 266.12100000000004 306.30999999999995 C 252.79000000000005 292.15999999999997 238.36300000000003 279.00899999999996 223.46100000000004 266.3159999999999 C 231.94600000000003 265.8699999999999 240.43300000000005 265.2049999999999 248.91800000000003 264.3709999999999 C 255.98100000000002 271.2319999999999 263.17400000000004 277.9129999999999 270.60900000000004 284.23599999999993 C 270.22900000000004 284.37199999999996 269.79600000000005 284.4989999999999 269.42600000000004 284.6359999999999 C 267.42800000000005 285.37799999999993 267.49500000000006 288.9109999999999 269.97100000000006 288.6679999999999 C 279.5450000000001 287.7319999999999 288.96900000000005 285.6779999999999 298.54900000000004 284.70499999999987 C 306.98 283.84799999999984 315.70500000000004 284.29899999999986 323.88200000000006 282.0169999999999 C 325.65700000000004 281.5219999999999 325.72600000000006 278.8149999999999 323.88200000000006 278.35399999999987 C 310.38200000000006 274.97699999999986 291.0810000000001 277.9259999999999 276.3810000000001 282.33999999999986 C 270.41800000000006 275.8509999999999 264.1010000000001 269.6229999999999 257.6590000000001 263.4949999999999 C 282.2330000000001 260.7769999999999 306.7550000000001 256.87599999999986 331.0410000000001 253.28999999999988 C 339.0850000000001 252.10099999999989 347.2210000000001 251.05099999999987 355.3870000000001 250.0309999999999 C 358.52100000000013 252.9499999999999 361.7790000000001 255.6369999999999 365.3030000000001 257.7519999999999 C 366.8850000000001 258.7019999999999 368.4310000000001 256.8609999999999 367.6930000000001 255.3619999999999 C 366.6080000000001 253.1599999999999 365.2210000000001 251.0519999999999 363.7170000000001 248.9909999999999 C 384.3420000000001 246.4659999999999 405.1140000000001 243.9629999999999 425.4340000000001 240.2309999999999 C 437.8450000000001 252.1049999999999 450.38900000000007 264.6739999999999 464.95400000000006 273.1529999999999 C 466.1700000000001 273.86099999999993 467.9320000000001 272.3619999999999 467.00800000000004 271.09899999999993 C 458.08000000000004 258.8979999999999 446.03100000000006 248.60499999999993 434.19900000000007 238.57199999999995 C 438.583 237.671 442.944 236.716 447.266 235.665 z M 218.299 261.919 C 214.833 259.01 211.338 256.133 207.835 253.26199999999997 C 216.889 252.73499999999999 225.93 251.82199999999997 234.95600000000002 250.62899999999996 C 237.46900000000002 253.14199999999997 239.98100000000002 255.65499999999997 242.508 258.15799999999996 C 234.422 259.33 226.357 260.611 218.299 261.919 z M 348.522 243.165 C 344.258 243.87099999999998 340 244.56 335.756 245.206 C 307.51399999999995 249.505 279.11199999999997 253.015 250.80199999999996 257.003 C 248.11599999999996 254.51399999999998 245.43199999999996 252.033 242.72399999999996 249.56599999999997 C 264.48099999999994 246.36699999999996 286.15 241.97999999999996 307.70099999999996 238.58799999999997 C 318.30999999999995 236.91799999999998 328.938 235.39499999999995 339.558 233.80699999999996 C 342.56 236.791 345.517 239.993 348.522 243.165 z M 347.882 232.557 C 367.832 229.606 387.79 226.701 407.76 223.884 C 410.757 226.612 413.742 229.35299999999998 416.741 232.07799999999997 C 396.964 234.66899999999998 377.159 238.28199999999998 357.506 241.64399999999998 C 354.452 238.473 351.162 235.451 347.882 232.557 z M 440.479 229.6 C 435.464 229.98999999999998 430.445 230.47 425.419 231.043 C 424.164 229.952 422.89799999999997 228.863 421.67199999999997 227.76600000000002 C 419.78599999999994 226.079 417.89 224.40200000000002 416.003 222.71500000000003 C 420.829 222.03600000000003 425.65 221.34200000000004 430.476 220.66300000000004 C 433.82 223.632 437.126 226.643 440.479 229.6 z M 192.935 61.227 C 192.582 61.882999999999996 192.615 62.696999999999996 193.385 63.379999999999995 C 215.492 82.975 237.44099999999997 102.711 258.634 123.30099999999999 C 279.54200000000003 143.61399999999998 298.342 168.069 321.015 186.26 C 322.669 187.587 325.544 185.897 324.192 183.809 C 309.019 160.383 285.666 140.562 265.617 121.332 C 243.54100000000003 100.161 220.63600000000002 79.851 196.65700000000004 60.855 C 213.87700000000004 59.138 231.11500000000004 57.431999999999995 248.38400000000004 55.659 C 292.89900000000006 95.842 336.84400000000005 136.665 381.398 176.814 C 395.15500000000003 189.212 409.00600000000003 201.506 422.83000000000004 213.82999999999998 C 417.968 214.48199999999997 413.10300000000007 215.134 408.232 215.78799999999998 C 395.235 204.195 382.202 192.642 368.92400000000004 181.37199999999999 C 366.61 179.408 363.29100000000005 182.595 365.54300000000006 184.75199999999998 C 376.9030000000001 195.63 388.4750000000001 206.279 400.08900000000006 216.885 C 379.96500000000003 219.595 359.78700000000003 222.356 339.61000000000007 225.24699999999999 C 339.55800000000005 225.19899999999998 339.50000000000006 225.14999999999998 339.44900000000007 225.10299999999998 C 329.1570000000001 215.73999999999998 318.27600000000007 207.195 306.8570000000001 199.26199999999997 C 304.76400000000007 197.80799999999996 302.1190000000001 201.17799999999997 304.1090000000001 202.82399999999998 C 313.3960000000001 210.50699999999998 322.5410000000001 218.36999999999998 331.50900000000007 226.428 C 319.4990000000001 228.172 307.4990000000001 229.974 295.51200000000006 231.844 C 275.18500000000006 205.737 249.20400000000006 182.78699999999998 226.24100000000004 159.075 C 200.60500000000005 132.601 174.86100000000005 106.24199999999999 148.71500000000003 80.26999999999998 C 146.43800000000005 78.00799999999998 143.03800000000004 81.43999999999998 145.20400000000004 83.77999999999999 C 169.39100000000005 109.90299999999999 193.94400000000005 135.671 218.63300000000004 161.319 C 241.37800000000004 184.94799999999998 263.26200000000006 211.512 288.21700000000004 232.97199999999998 C 270.27000000000004 235.82 252.37900000000005 238.86799999999997 234.56600000000003 242.13299999999998 C 229.29800000000003 237.34499999999997 224.05400000000003 232.55599999999998 218.92300000000003 227.71599999999998 C 216.57300000000004 225.49899999999997 213.03300000000004 229.01699999999997 215.36900000000003 231.26899999999998 C 219.48900000000003 235.23899999999998 223.57100000000003 239.30199999999996 227.65300000000002 243.37399999999997 C 219.04900000000004 244.98299999999998 210.47600000000003 246.67399999999998 201.92200000000003 248.40799999999996 C 180.36100000000002 230.90199999999996 158.39900000000003 213.83299999999997 137.71800000000002 195.73799999999994 C 95.244 158.576 54.611 119.788 10.801 84.162 C 71.394 73.701 132.032 67.31 192.935 61.227 z M 205.55 380.151 C 202.824 377.254 200.097 374.357 197.371 371.46000000000004 C 198.036 358.04400000000004 198.591 344.61 199.02200000000002 331.158 C 201.26500000000001 332.664 203.54000000000002 334.09200000000004 205.84900000000002 335.44800000000004 C 205.318 350.393 205.155 365.335 205.55 380.151 z M 147.75 236.355 C 163.948 248.213 179.656 260.735 194.858 273.848 C 193.838 288.19800000000004 193.08 302.598 192.665 317.052 C 187.14499999999998 313.05600000000004 181.6 309.076 176.17499999999998 305.023 C 173.77399999999997 303.22900000000004 171.22599999999997 306.987 173.093 309.01700000000005 C 178.706 315.1170000000001 185.279 321.04300000000006 192.35999999999999 326.40600000000006 C 192.08399999999997 339.57500000000005 192.028 352.73400000000004 192.107 365.86600000000004 C 191.698 365.432 191.29 364.997 190.881 364.56200000000007 C 188.791 362.34100000000007 185.504 365.66100000000006 187.544 367.89900000000006 C 189.096 369.60200000000003 190.64800000000002 371.30600000000004 192.20100000000002 373.01000000000005 C 192.25300000000001 378.18000000000006 192.31400000000002 383.3430000000001 192.40500000000003 388.494 C 171.09100000000004 370.096 149.29400000000004 352.223 128.80900000000003 333.937 C 88.39 297.858 48.887 260.692 8.022 225.127 C 11.65 207.252 9.819 187.104 9.592 168.726 C 12.531 171.197 15.45 173.691 18.425 176.12199999999999 C 18.334 180.45899999999997 18.572 184.83599999999998 18.608 189.051 C 18.68 197.631 18.394000000000002 206.48 20.491 214.843 C 20.93 216.594 23.597 216.595 24.037 214.843 C 26.134999999999998 206.48 25.848 197.631 25.919999999999998 189.051 C 25.938999999999997 186.83399999999997 26.009999999999998 184.57199999999997 26.063999999999997 182.29399999999998 C 41.412 194.63 56.989 206.71599999999998 72.00999999999999 219.433 C 93.00299999999999 237.207 112.53699999999999 257.751 135.00799999999998 273.604 C 136.628 274.748 138.04899999999998 272.37399999999997 136.975 271.054 C 118.413 248.224 93.35499999999999 229.28299999999996 70.847 210.47599999999997 C 56.17999999999999 198.21999999999997 41.34299999999999 185.75199999999998 25.967999999999996 174.15499999999997 C 25.788999999999998 170.41199999999998 25.368999999999996 166.70899999999997 24.212999999999997 163.20799999999997 C 23.58 161.29099999999997 20.946999999999996 161.28699999999998 20.313 163.20799999999997 C 19.691 165.09399999999997 19.299 167.04299999999998 19.006999999999998 169.01599999999996 C 15.871999999999998 166.74099999999996 12.698999999999998 164.53499999999997 9.508999999999999 162.35999999999996 C 9.473999999999998 137.28499999999997 8.745999999999999 112.27299999999995 7.738999999999999 87.22299999999996 C 51.285999999999994 124.51999999999995 92.44200000000001 164.32399999999996 135.481 202.18299999999994 C 155.518 219.80799999999994 175.768 237.72999999999993 196.266 255.35499999999993 C 195.91 259.17999999999995 195.691 263.04099999999994 195.387 266.88199999999995 C 180.786 254.72299999999996 165.587 243.47199999999995 149.728 232.96799999999996 C 147.593 231.552 145.753 234.893 147.75 236.355 z M 196.239 391.784 C 196.53 387.28499999999997 196.747 382.77299999999997 196.992 378.26599999999996 C 199.93699999999998 381.49699999999996 202.88199999999998 384.72999999999996 205.827 387.96099999999996 C 206.008 392.304 206.264 396.62399999999997 206.564 400.93399999999997 C 203.129 397.877 199.714 394.805 196.239 391.784 z M 206.194 327.047 C 203.88799999999998 325.35400000000004 201.654 323.6 199.339 321.92 C 199.776 307.519 200.216 293.127 200.699 278.749 C 200.71800000000002 278.766 200.738 278.781 200.756 278.797 C 203.374 281.11100000000005 205.902 283.569 208.436 286.019 C 207.584 299.587 206.788 313.297 206.194 327.047 z M 208.918 278.265 C 206.235 275.984 203.576 273.73199999999997 200.97 271.515 C 201.111 267.592 201.24699999999999 263.668 201.408 259.751 C 204.137 262.085 206.90499999999997 264.352 209.64399999999998 266.67199999999997 C 209.407 270.516 209.163 274.389 208.918 278.265 z M 257.06 389.412 C 256.477 402.79699999999997 255.937 416.18399999999997 255.334 429.568 C 255.074 435.341 254.165 441.72499999999997 254.267 447.842 C 240.803 432.798 226.162 418.52799999999996 210.875 404.757 C 211.162 401.406 211.472 398.061 211.71 394.695 C 216.02700000000002 399.84499999999997 220.573 405.28 226.02200000000002 408.48199999999997 C 227.63700000000003 409.43199999999996 229.20600000000002 407.58599999999996 228.45300000000003 406.051 C 224.94900000000004 398.894 217.83900000000003 392.912 212.17100000000002 387.11699999999996 C 213.12500000000003 371.43299999999994 213.66800000000003 355.63599999999997 213.996 339.81399999999996 C 217.40800000000002 341.47599999999994 220.841 343.006 224.285 344.22499999999997 C 225.624 344.69899999999996 226.864 342.68199999999996 225.716 341.76699999999994 C 221.95000000000002 338.7629999999999 217.99 335.93499999999995 214.121 333.02399999999994 C 214.365 319.3759999999999 214.53 305.73999999999995 214.74800000000002 292.16499999999996 C 223.43200000000002 300.82599999999996 232.056 309.62299999999993 241.757 316.813 C 243.074 317.789 244.838 315.894 243.979 314.592 C 236.358 303.025 225.73700000000002 292.868 214.89000000000001 283.412 C 214.96800000000002 279.37 215.07700000000003 275.349 215.179 271.32399999999996 C 230.991 284.62199999999996 246.92000000000002 297.70899999999995 263.095 310.143 C 256.178 334.711 258.156 364.197 257.06 389.412 z M 350.432 535.605 C 336.517 521.399 320.882 508.43100000000004 306.322 495.029 C 291.763 481.627 277.282 467.793 261.506 455.79 C 264.332 448.529 263.44199999999995 439.391 263.719 431.761 C 264.005 423.896 264.257 416.03000000000003 264.516 408.165 C 292.672 434.291 323.177 458.49300000000005 352.43100000000004 483.369 C 350.875 500.531 348.89 518.534 350.432 535.605 z M 353.199 474.272 C 353.094 475.659 352.964 477.07599999999996 352.846 478.478 C 324.76800000000003 452.231 295.354 426.115 264.69100000000003 402.985 C 264.82000000000005 399.057 264.95500000000004 395.128 265.09000000000003 391.2 C 294.74100000000004 414.904 322.63200000000006 442.51099999999997 353.838 463.907 C 353.67900000000003 464.414 353.737 464.93 353.978 465.399 C 353.737 468.357 353.424 471.31 353.199 474.272 z M 354.613 458.155 C 340.964 444.93899999999996 324.932 433.38599999999997 310.319 421.53999999999996 C 295.56600000000003 409.57899999999995 280.809 397.628 265.283 386.68499999999995 C 266.288 363.30199999999996 269.735 338.01699999999994 267.601 314.59899999999993 C 281.523 330.47799999999995 298.013 344.52899999999994 313.76099999999997 358.40099999999995 C 327.99399999999997 370.93999999999994 343.121 387.29599999999994 360.881 395.08399999999995 C 358.506 416.076 356.418 437.104 354.613 458.155 z M 360.463 465.762 C 437.607 458.397 515.0840000000001 442.809 590.909 427.053 C 590.731 429.811 590.554 432.584 590.365 435.377 C 573.159 436.351 555.94 441.668 539.039 444.769 C 518.018 448.625 496.972 452.342 475.961 456.249 C 437.103 463.475 397.712 470.44 359.573 480.97400000000005 C 359.666 478.73300000000006 359.75899999999996 476.49100000000004 359.902 474.2710000000001 C 360.084 471.434 360.275 468.599 360.463 465.762 z M 476.119 512.467 C 436.055 520.962 396.11100000000005 529.9549999999999 356.523 540.467 C 359.29900000000004 522.478 358.85200000000003 503.568 359.416 485.167 C 398.065 479.38899999999995 436.433 470.962 474.89099999999996 464.02299999999997 C 512.1659999999999 457.296 553.909 454.301 589.952 441.74199999999996 C 588.948 457.83799999999997 588.51 474.22799999999995 591.537 489.88599999999997 C 552.851 494.79 514.211 504.39 476.119 512.467 z M 591.25 419.344 C 580.539 421.557 569.805 423.657 559.056 425.687 C 558.9340000000001 419.641 555.471 413.86400000000003 553.0880000000001 408.40000000000003 C 549.9860000000001 401.28900000000004 546.8280000000001 394.20300000000003 543.6980000000001 387.10400000000004 C 542.6020000000001 384.62000000000006 538.3100000000001 386.39900000000006 539.2730000000001 388.97 C 541.9970000000002 396.23900000000003 544.6920000000001 403.521 547.4440000000002 410.78000000000003 C 549.4440000000002 416.05300000000005 551.0140000000002 422.122 554.6740000000002 426.49800000000005 C 490.0830000000002 438.57200000000006 424.9780000000002 448.13800000000003 360.73800000000017 461.61400000000003 C 362.19800000000015 439.81000000000006 363.69300000000015 418.01300000000003 364.4920000000002 396.17 C 439.6630000000002 383.807 519.0620000000001 382.98900000000003 592.1200000000001 359.70500000000004 C 587.752 378.38 591.714 400.135 591.25 419.344 z M 280.689 372.026 C 283.55 377.851 287.245 383.337 289.112 389.582 C 289.557 391.067 287.70300000000003 391.937 286.654 391.013 C 276.044 381.67699999999996 271.036 364.296 267.914 351.008 C 267.358 348.642 270.72499999999997 347.762 271.519 350.015 C 274.152 357.495 277.191 364.906 280.689 372.026 z M 279.507 345.608 C 292.486 363.48 307.575 384.683 312.136 406.669 C 312.49600000000004 408.4 310.244 409.4 309.28000000000003 407.873 C 297.023 388.46299999999997 288.99100000000004 366.876 275.85600000000005 347.74199999999996 C 274.299 345.474 277.934 343.442 279.507 345.608 z M 302.236 357.023 C 316.596 377.89500000000004 336.29499999999996 405.904 338.578 431.909 C 338.74199999999996 433.77299999999997 336.20599999999996 434.097 335.32399999999996 432.791 C 327.751 421.585 324.13499999999993 407.60699999999997 318.25299999999993 395.425 C 312.2629999999999 383.01800000000003 305.6699999999999 370.967 298.42599999999993 359.25 C 296.914 356.804 300.647 354.713 302.236 357.023 z M 340.436 402.189 C 345.21999999999997 411.553 351.584 421.14700000000005 353.279 431.60900000000004 C 353.525 433.129 351.757 434.511 350.513 433.21900000000005 C 343.18399999999997 425.607 339.375 414.91200000000003 334.789 405.49000000000007 C 329.472 394.56500000000005 324.24 383.62000000000006 319.181 372.57400000000007 C 317.842 369.6500000000001 321.99 367.0810000000001 323.573 370.0060000000001 C 329.339 380.664 334.922 391.399 340.436 402.189 z M 356.881 414.663 C 357.19599999999997 416.327 355.277 417.63800000000003 353.962 416.362 C 348.757 411.315 345.89099999999996 403.286 342.526 396.94300000000004 C 340.993 394.05300000000005 345.34700000000004 391.49600000000004 346.918 394.37500000000006 C 350.357 400.679 355.53 407.542 356.881 414.663 z M 377.017 451.374 C 371.36 436.372 371.05 417.57800000000003 369.843 401.71200000000005 C 369.66400000000004 399.36100000000005 373.47700000000003 398.879 373.937 401.15900000000005 C 377.09000000000003 416.78900000000004 381.88800000000003 434.87100000000004 380.509 450.90200000000004 C 380.332 452.943 377.73 453.265 377.017 451.374 z M 394.375 442.263 C 389.204 432.503 388.812 418.834 386.975 408.03499999999997 C 386.461 405.01199999999994 390.975 403.66799999999995 391.64300000000003 406.748 C 393.963 417.443 398.77500000000003 430.375 397.629 441.382 C 397.465 442.964 395.259 443.933 394.375 442.263 z M 397.436 413.517 C 396.714 410.331 401.47799999999995 408.995 402.34 412.165 C 403.921 417.97 405.50699999999995 423.77500000000003 407.08099999999996 429.583 C 408.354 434.28200000000004 410.22599999999994 438.89200000000005 409.40299999999996 443.75 C 409.07699999999994 445.674 406.626 445.43 405.70599999999996 444.233 C 402.68899999999996 440.30400000000003 402.24299999999994 434.746 401.157 429.967 C 399.913 424.485 398.677 419 397.436 413.517 z M 414.634 434.687 C 410.701 427.89 410.142 419.26 408.677 411.66200000000003 C 408.1 408.67 412.586 407.372 413.28700000000003 410.391 C 415.03700000000003 417.945 418.08200000000005 426.149 417.261 433.975 C 417.123 435.289 415.388 435.99 414.634 434.687 z M 420.837 408.167 C 419.83299999999997 404.65999999999997 425.207 403.214 426.274 406.66799999999995 C 427.828 411.6979999999999 429.382 416.727 430.936 421.75699999999995 C 432.245 425.99099999999993 433.75 429.88499999999993 433.001 434.33199999999994 C 432.798 435.53999999999996 431.06399999999996 435.88699999999994 430.286 435.04799999999994 C 427.236 431.756 426.39 427.5729999999999 425.179 423.34399999999994 C 423.733 418.285 422.286 413.226 420.837 408.167 z M 432.144 410.165 C 431.021 407.31600000000003 435.841 405.33000000000004 437.073 408.08700000000005 C 439.104 412.63300000000004 441.135 417.18000000000006 443.166 421.72600000000006 C 444.755 425.28000000000003 446.997 428.74300000000005 446.165 432.70500000000004 C 445.913 433.90200000000004 444.336 434.50100000000003 443.329 433.85900000000004 C 439.92900000000003 431.694 439.044 427.66600000000005 437.624 424.06300000000005 C 435.797 419.431 433.97 414.798 432.144 410.165 z M 444.266 406.832 C 442.797 403.69599999999997 447.324 400.936 448.976 404.079 C 451.087 408.1 453.198 412.119 455.31 416.139 C 456.878 419.125 458.981 422.005 457.536 425.327 C 457.231 426.028 456.266 426.273 455.598 426.115 C 452.136 425.3 451.111 421.451 449.73900000000003 418.52 C 447.914 414.624 446.091 410.728 444.266 406.832 z M 455.364 404.259 C 453.993 400.791 459.54299999999995 399.35200000000003 460.91799999999995 402.72700000000003 C 462.6929999999999 407.081 464.46799999999996 411.43500000000006 466.24199999999996 415.788 C 467.71399999999994 419.396 470.109 422.987 469.28099999999995 426.923 C 469.025 428.145 467.34999999999997 428.844 466.3109999999999 428.13100000000003 C 463.0139999999999 425.872 462.2919999999999 421.786 460.86599999999993 418.17800000000005 C 459.033 413.539 457.198 408.899 455.364 404.259 z M 463.534 394.601 C 462.55899999999997 391.403 467.43899999999996 390.124 468.498 393.23199999999997 C 470.835 400.097 473.421 406.85999999999996 476.40299999999996 413.47499999999997 C 478.56999999999994 418.28099999999995 482.22299999999996 423.10799999999995 482.04499999999996 428.496 C 482.00399999999996 429.755 480.53599999999994 430.825 479.36999999999995 430.031 C 474.71899999999994 426.854 473.12299999999993 420.805 471.03399999999993 415.738 C 468.182 408.816 465.717 401.76 463.534 394.601 z M 483.68 417.924 C 480.588 410.404 478.42 402.599 476.889 394.62199999999996 C 476.264 391.36299999999994 481.132 389.94899999999996 481.91200000000003 393.23699999999997 C 483.73300000000006 400.90799999999996 486.172 408.31399999999996 489.40400000000005 415.51 C 491.81800000000004 420.887 495.5210000000001 425.942 496.28600000000006 431.839 C 496.46700000000004 433.237 494.52500000000003 434.254 493.4270000000001 433.479 C 488.333 429.887 485.994 423.55 483.68 417.924 z M 490.743 396.35 C 490.033 393.315 494.529 392.07000000000005 495.411 395.06300000000005 C 497.559 402.345 500.183 409.40600000000006 503.32 416.32400000000007 C 505.626 421.4080000000001 509.424 426.27400000000006 509.585 431.9460000000001 C 509.628 433.45400000000006 507.755 434.6410000000001 506.45 433.7460000000001 C 501.553 430.38400000000007 499.75399999999996 424.1070000000001 497.587 418.7410000000001 C 494.66 411.49 492.523 403.957 490.743 396.35 z M 501.759 398.315 C 500.855 395.498 505.139 394.412 506.132 397.109 C 508.357 403.15299999999996 510.581 409.195 512.807 415.238 C 514.717 420.427 517.888 426.152 517.2280000000001 431.757 C 517.0780000000001 433.035 515.604 433.909 514.5600000000001 432.862 C 510.67400000000004 428.96200000000005 509.68000000000006 423.019 508.03400000000005 417.886 C 505.942 411.362 503.85 404.839 501.759 398.315 z M 514.232 398.567 C 513.302 395.394 518.0899999999999 394.146 519.137 397.214 C 521.045 402.804 523.1809999999999 408.298 525.6819999999999 413.652 C 527.5319999999999 417.61199999999997 530.7429999999999 421.683 530.324 426.18 C 530.198 427.533 528.8829999999999 428.448 527.6039999999999 427.741 C 523.4319999999999 425.436 522.0339999999999 420.135 520.2959999999999 415.923 C 517.952 410.248 515.959 404.457 514.232 398.567 z M 520.551 386.964 C 519.586 384.35699999999997 523.9150000000001 382.56 525.0310000000001 385.075 C 528.0600000000001 391.899 531.1450000000001 398.702 534.0960000000001 405.56 C 536.8670000000001 412 541.5360000000002 419.365 541.2320000000001 426.473 C 541.157 428.20500000000004 539.1150000000001 429.09000000000003 537.8320000000001 427.88100000000003 C 533.0990000000002 423.423 531.4950000000001 416.059 529.1870000000001 410.10400000000004 C 526.214 402.427 523.409 394.684 520.551 386.964 z M 533.393 393.588 C 531.835 390.507 536.364 387.809 538.049 390.86600000000004 C 541.12 396.44000000000005 543.8539999999999 402.17300000000006 546.159 408.107 C 548.138 413.20300000000003 551.127 419.298 549.754 424.785 C 549.405 426.177 547.413 426.795 546.4250000000001 425.66400000000004 C 543.1110000000001 421.874 542.605 416.58400000000006 541.0600000000001 411.88000000000005 C 538.992 405.577 536.385 399.507 533.393 393.588 z M 548.465 389.823 C 547.13 386.96999999999997 551.241 384.459 552.751 387.317 C 555.226 392.00100000000003 557.701 396.684 560.177 401.368 C 562.3720000000001 405.522 565.369 409.861 566.09 414.544 C 566.4200000000001 416.685 563.965 418.623 562.198 416.81 C 558.87 413.398 557.222 408.54200000000003 555.222 404.264 C 552.969 399.451 550.716 394.637 548.465 389.823 z M 558.42 385.794 C 556.573 382.602 561.401 379.816 563.342 382.917 C 566.245 387.55699999999996 569.15 392.19699999999995 572.053 396.837 C 574.465 400.692 577.896 404.522 578.183 409.17199999999997 C 578.293 410.96599999999995 576.098 412.102 574.632 411.20899999999995 C 570.689 408.80699999999996 568.9 403.89799999999997 566.6429999999999 399.99899999999997 C 563.903 395.264 561.162 390.528 558.42 385.794 z M 567.314 382.376 C 565.3969999999999 379.308 570.165 376.58799999999997 572.129 379.561 C 574.638 383.358 576.951 387.265 578.996 391.33099999999996 C 580.6229999999999 394.56499999999994 582.996 398.18499999999995 582.029 401.89 C 581.723 403.063 580.241 403.71 579.193 403.044 C 576.019 401.027 575.138 396.93 573.5749999999999 393.671 C 571.71 389.784 569.599 386.031 567.314 382.376 z M 575.195 382.181 C 573.139 379.073 578.115 376.216 580.1690000000001 379.274 C 582.7440000000001 383.105 586.652 387.368 587.0500000000001 392.115 C 587.171 393.54200000000003 585.475 394.218 584.3770000000001 393.65000000000003 C 580.244 391.511 577.677 385.932 575.195 382.181 z M 375.221 386.312 C 375.959 387.402 374.524 388.707 373.46 388.072 C 361.912 381.186 352.472 370.161 342.784 360.927 C 331.843 350.499 320.902 340.071 309.961 329.64300000000003 C 307.755 327.54 311.083 324.235 313.298 326.30600000000004 C 324.341 336.63200000000006 335.383 346.95900000000006 346.426 357.28600000000006 C 356.204 366.429 367.673 375.177 375.221 386.312 z M 385.045 370.869 C 385.918 372.15000000000003 384.23 373.64200000000005 382.99100000000004 372.923 C 370.12000000000006 365.466 359.53000000000003 353.139 348.69800000000004 343.036 C 336.434 331.595 324.33700000000005 319.978 312.199 308.405 C 309.93100000000004 306.243 313.32300000000004 302.89799999999997 315.622 304.98199999999997 C 328.05600000000004 316.255 340.53000000000003 327.48499999999996 352.841 338.893 C 363.707 348.962 376.661 358.573 385.045 370.869 z M 413.473 374.163 C 414.641 375.611 413.105 378.195 411.319 376.954 C 383.35400000000004 357.52 359.28200000000004 330.269 334.665 306.823 C 332.16700000000003 304.44399999999996 335.90900000000005 300.751 338.435 303.053 C 363.413 325.806 392.232 347.823 413.473 374.163 z M 446.093 375.694 C 447.44 377.291 445.74 379.81100000000004 443.791 378.678 C 429.933 370.623 418.058 358.246 406.159 347.586 C 392.77299999999997 335.594 379.606 323.365 366.6 310.962 C 364.108 308.586 367.87 304.849 370.37 307.192 C 382.798 318.838 395.36400000000003 330.332 408.129 341.60900000000004 C 420.673 352.69 435.309 362.917 446.093 375.694 z M 469.128 373.476 C 470.317 374.934 468.811 377.316 467.01099999999997 376.22 C 452.36799999999994 367.298 439.89599999999996 354.547 427.05199999999996 343.245 C 412.628 330.553 398.20399999999995 317.862 383.77899999999994 305.17 C 380.95399999999995 302.684 385.0799999999999 298.61600000000004 387.89599999999996 301.053 C 401.62499999999994 312.933 415.35499999999996 324.814 429.08299999999997 336.693 C 442.6 348.39 457.805 359.588 469.128 373.476 z M 483.487 364.901 C 484.50300000000004 366.086 483.19 368.089 481.742 367.163 C 452.959 348.77 428.036 322.403 402.569 299.743 C 400.192 297.628 403.654 294.256 406.035 296.276 C 431.918 318.231 461.356 339.109 483.487 364.901 z M 493.658 350.844 C 494.748 352.092 493.322 354.26099999999997 491.802 353.25 C 468.196 337.551 447.53900000000004 315.515 426.31 296.757 C 424.144 294.843 427.314 291.712 429.473 293.593 C 450.734 312.114 475.115 329.591 493.658 350.844 z M 516.371 349.006 C 517.521 350.241 516.0079999999999 352.404 514.515 351.412 C 489.291 334.65799999999996 466.851 312.07899999999995 443.784 292.47999999999996 C 441.49399999999997 290.53499999999997 444.803 287.26099999999997 447.077 289.18699999999995 C 470.06 308.65 495.839 326.969 516.371 349.006 z M 136.484 133.086 C 133.824 130.842 137.657 127.058 140.297 129.27200000000002 C 165.807 150.66000000000003 193.715 174.38100000000003 211.901 202.58000000000004 C 212.901 204.13100000000003 210.702 205.63300000000004 209.447 204.47400000000005 C 184.385 181.326 162.701 155.211 136.484 133.086 z M 314.204 137.837 C 317.354 141.87099999999998 320.821 145.797 322.64 150.637 C 323.221 152.184 321.137 153.752 319.804 152.816 C 315.57 149.845 312.64399999999995 145.507 309.524 141.447 C 305.823 136.633 302.122 131.81900000000002 298.421 127.005 C 296.404 124.381 300.981 120.89999999999999 302.993 123.47699999999999 C 306.73 128.265 310.467 133.051 314.204 137.837 z M 40.49 222.14 C 40.624 228.03099999999998 41.521 234.636 39.456 240.212 C 38.725 242.18599999999998 36.168000000000006 242.183 35.438 240.212 C 33.353 234.582 34.278000000000006 228.09199999999998 34.404 222.14 C 34.54900000000001 215.326 34.855000000000004 208.51299999999998 35.088 201.70299999999997 C 35.192 198.66199999999998 39.703 198.66699999999997 39.806 201.70299999999997 C 40.039 208.514 40.335 215.327 40.49 222.14 z M 53.367 236.544 C 53.480999999999995 240.698 53.73 244.479 51.791999999999994 248.239 C 51.132999999999996 249.517 49.06399999999999 249.517 48.404999999999994 248.239 C 46.46699999999999 244.479 46.714999999999996 240.698 46.82999999999999 236.544 C 46.962999999999994 231.67700000000002 47.19099999999999 226.811 47.37099999999999 221.946 C 47.50099999999999 218.432 52.694999999999986 218.438 52.82499999999999 221.946 C 53.006 226.811 53.234 231.677 53.367 236.544 z M 69.705 259.926 C 69.834 261.409 67.977 262.301 66.8 261.59299999999996 C 61.814 258.592 61.527 251.60599999999997 62.544 246.48999999999995 C 63.300999999999995 242.68699999999995 69.04899999999999 244.31699999999995 68.335 248.08599999999996 C 67.529 252.346 69.345 255.813 69.705 259.926 z M 127.046 308.746 C 140.404 320.57399999999996 155.70100000000002 332.688 165.364 347.836 C 166.51500000000001 349.64 164.202 352.011 162.387 350.813 C 147.354 340.88 135.018 326.205 121.77000000000001 314.022 C 106.90700000000001 300.354 91.53200000000001 287.301 75.77200000000002 274.683 C 72.51800000000001 272.078 77.10700000000001 267.637 80.32200000000002 270.133 C 96.291 282.525 111.911 295.345 127.046 308.746 z M 60.907 151.671 C 62.034 153.087 60.529999999999994 155.673 58.79 154.414 C 44.262 143.88899999999998 31.069 131.594 16.726999999999997 120.78899999999999 C 14.115999999999996 118.82199999999999 16.512999999999998 114.39099999999999 19.355999999999998 116.29099999999998 C 34.352 126.313 49.609 137.48 60.907 151.671 z M 81.461 92.106 C 73.083 97.27799999999999 61.064 97.586 51.150999999999996 96.631 C 59.599 102.905 68.518 109.565 74.501 117.811 C 75.608 119.33600000000001 73.524 120.92200000000001 72.111 120.2 C 61.157000000000004 114.602 51.69200000000001 104.113 42.887 95.685 C 41.182 94.053 43.528 90.894 45.449 92.364 C 45.754999999999995 92.598 46.089999999999996 92.84 46.399 93.075 C 46.69 92.426 47.199 91.892 48.205 91.907 C 54.163 91.99799999999999 60.208999999999996 91.80499999999999 66.112 90.91799999999999 C 70.934 90.193 75.6 88.70599999999999 80.48599999999999 88.508 C 82.466 88.428 83.027 91.139 81.461 92.106 z M 300.065 477.259 C 298.772 476.247 300.479 474.08500000000004 301.81 474.997 C 307.752 479.069 313.472 483.341 318.885 488.096 C 322.438 491.217 326.543 494.527 329.82599999999996 498.289 C 329.53499999999997 494.32599999999996 329.58799999999997 490.099 330.85699999999997 486.953 C 331.35999999999996 485.70799999999997 332.897 485.71 333.39799999999997 486.953 C 335.306 491.67999999999995 334.55199999999996 498.914 333.84099999999995 503.88599999999997 C 333.82599999999996 503.99199999999996 333.72599999999994 504.03099999999995 333.691 504.123 C 333.661 504.752 333.10299999999995 505.228 332.45899999999995 505.063 C 331.56199999999995 505.209 330.554 504.861 330.41399999999993 503.88599999999997 C 330.40799999999996 503.83899999999994 330.40199999999993 503.78 330.39599999999996 503.73299999999995 C 325.53099999999995 500.30999999999995 321.45399999999995 495.41999999999996 317.056 491.49299999999994 C 311.55 486.575 305.878 481.808 300.065 477.259 z M 418.545 516.206 C 405.458 522.535 388.795 523.57 374.337 523.519 C 374.275 523.65 374.256 523.793 374.188 523.922 C 373.72499999999997 524.8000000000001 372.323 524.8000000000001 371.859 523.922 C 369.991 520.379 370.33099999999996 516.172 370.26099999999997 512.231 C 370.171 507.206 370.22799999999995 502.203 370.87899999999996 497.217 C 371.239 494.46 374.80999999999995 494.467 375.169 497.217 C 375.82 502.203 375.876 507.20599999999996 375.786 512.231 C 375.746 514.528 375.795 516.901 375.514 519.194 C 389.58 517.5 403.621 513.851 417.678 513.0079999999999 C 419.342 512.909 420.068 515.469 418.545 516.206 z M 574.863 457.562 C 575.7280000000001 464.178 577.613 470.688 577.8560000000001 477.375 C 577.9030000000001 478.654 576.0500000000001 479.546 575.1880000000001 478.48 C 570.4040000000001 472.56100000000004 569.4430000000001 464.944 570.0830000000001 457.562 C 570.354 454.431 574.469 454.553 574.863 457.562 z M 559.981 470.543 C 560.622 474.095 561.802 477.959 560.585 481.484 C 560.129 482.80199999999996 558.5790000000001 482.91299999999995 557.7850000000001 481.84999999999997 C 555.5500000000001 478.859 555.5260000000001 474.794 555.046 471.21099999999996 C 554.669 468.395 559.485 467.791 559.981 470.543 z M 549.809 476.15 C 549.842 479.007 550.227 481.673 548.867 484.23499999999996 C 548.4219999999999 485.073 547.0889999999999 485.073 546.645 484.23499999999996 C 545.286 481.674 545.6709999999999 479.00699999999995 545.703 476.15 C 545.734 473.504 549.779 473.508 549.809 476.15 z M 540.385 479.868 C 540.385 482.086 540.349 483.694 539.165 485.599 C 538.549 486.58799999999997 537.135 486.58799999999997 536.519 485.599 C 535.338 483.7 535.299 482.056 535.299 479.868 C 535.299 476.589 540.385 476.595 540.385 479.868 z M 512.231 496.396 C 505.21999999999997 497.499 497.779 497.011 490.678 497.313 C 488.59499999999997 497.401 488.187 494.171 490.189 493.70099999999996 C 497.14300000000003 492.06899999999996 505.326 491.08099999999996 512.231 493.323 C 513.588 493.764 513.896 496.135 512.231 496.396 z" stroke-linecap="round" />
</g>
</svg>