<?xml version="1.0" encoding="UTF-8" standalone="no" ?>
<!DOCTYPE svg PUBLIC "-//W3C//DTD SVG 1.1//EN" "http://www.w3.org/Graphics/SVG/1.1/DTD/svg11.dtd">
<svg xmlns="http://www.w3.org/2000/svg" xmlns:xlink="http://www.w3.org/1999/xlink" version="1.1" width="228" height="228" viewBox="0 0 228 228" xml:space="preserve">
<desc>Created with Fabric.js 5.3.0</desc>
<defs>
</defs>
<g transform="matrix(0.3779709346 0 0 0.3779709346 113.7918242962 113.7918252871)" id="5rYIuwFKcQIj11YeCWuq-"  >
<path style="stroke: none; stroke-width: 1; stroke-dasharray: none; stroke-linecap: butt; stroke-dashoffset: 0; stroke-linejoin: miter; stroke-miterlimit: 4; fill: rgb(0,2,75); fill-rule: nonzero; opacity: 1;"  transform=" translate(-299.9996813201, -300)" d="M 40.552 281.379 L 60 262.857 L 60 528 C 60 567.701 92.299 600 132 600 L 468 600 C 507.701 600 540 567.701 540 528 L 540 262.857 L 559.448 281.379 C 564.0939999999999 285.80400000000003 570.049 288 575.996 288 C 582.334 288 588.663 285.504 593.379 280.552 C 602.52 270.95300000000003 602.15 255.76200000000003 592.551 246.62100000000004 L 357.931 23.172 C 342.241 8.229 321.667 0 300 0 C 278.333 0 257.759 8.229 242.06900000000002 23.172 L 7.448 246.621 C -2.1500000000000004 255.762 -2.520999999999999 270.95300000000003 6.62 280.552 C 15.761 290.149 30.953 290.521 40.552 281.379 z M 254 552 L 254 322 L 346 322 L 346 552 L 254 552 z M 275.172 57.931 C 281.897 51.527 290.714 48 300 48 C 309.286 48 318.103 51.527 324.828 57.931 L 492 217.143 L 492 528 C 492 541.233 481.234 552 468 552 L 394 552 L 394 322 C 394 295.533 372.467 274 346 274 L 254 274 C 227.53300000000002 274 206 295.533 206 322 L 206 552 L 132 552 C 118.766 552 108 541.233 108 528 L 108 217.143 L 275.172 57.931 z" stroke-linecap="round" />
</g>
</svg>