<?xml version="1.0" encoding="UTF-8" standalone="no" ?>
<!DOCTYPE svg PUBLIC "-//W3C//DTD SVG 1.1//EN" "http://www.w3.org/Graphics/SVG/1.1/DTD/svg11.dtd">
<svg xmlns="http://www.w3.org/2000/svg" xmlns:xlink="http://www.w3.org/1999/xlink" version="1.1" width="500" height="500" viewBox="0 0 500 500" xml:space="preserve">
<desc>Created with Fabric.js 5.3.0</desc>
<defs>
</defs>
<g transform="matrix(0.5432395977 0 0 0.5432395977 258.9285714286 268.47275185)" id="fnhdRjI-eBXT0VUpeF4zr"  >
<path style="stroke: none; stroke-width: 1; stroke-dasharray: none; stroke-linecap: butt; stroke-dashoffset: 0; stroke-linejoin: miter; stroke-miterlimit: 4; fill: rgb(78,94,133); fill-rule: nonzero; opacity: 1;"  transform=" translate(-249.9997154958, -250)" d="M 454.664 74.422 L 425.58 45.337 C 412.462 32.228 394.975 25 376.326 25 C 357.677 25 340.19 32.219 327.08000000000004 45.337 L 83.495 288.923 C 81.394 291.025 79.93700000000001 293.611 79.061 296.40500000000003 C 77.453 298.21200000000005 76.156 300.345 75.34400000000001 302.781 L 25.939 450.986 C 23.75 457.544 25.453 464.772 30.348 469.659 C 33.818 473.137 38.483 475 43.25 475 C 45.176 475 47.126 474.69 49.021 474.06 L 197.219 424.647 C 199.73399999999998 423.804 201.93099999999998 422.45 203.76999999999998 420.755 C 206.42899999999997 419.903 208.968 418.614 211.07699999999997 416.504 L 454.663 172.92600000000002 C 467.773 159.801 475 142.322 475 123.673 C 475 105.027 467.781 87.532 454.664 74.422 z M 151.947 331.57 L 338.526 144.98999999999998 L 355.01 161.47499999999997 L 168.423 348.05499999999995 L 151.947 331.57 z M 308.774 115.231 L 321.334 127.79899999999999 L 134.755 314.379 L 122.195 301.827 L 308.774 115.231 z M 103.234 334.468 L 165.52499999999998 396.767 L 72.07999999999998 427.912 L 103.234 334.468 z M 198.184 377.808 L 185.632 365.256 L 372.211 178.67599999999996 L 384.771 191.22799999999995 L 198.184 377.808 z M 428.867 147.132 L 401.964 174.035 L 325.966 98.038 L 352.869 71.13499999999999 C 365.31800000000004 58.68699999999999 387.33400000000006 58.68699999999999 399.77500000000003 71.13499999999999 L 428.85900000000004 100.22 C 435.083 106.444 438.50600000000003 114.77 438.50600000000003 123.67699999999999 C 438.514 132.574 435.091 140.908 428.867 147.132 z" stroke-linecap="round" />
</g>
</svg>