<?xml version="1.0" encoding="UTF-8" standalone="no" ?>
<!DOCTYPE svg PUBLIC "-//W3C//DTD SVG 1.1//EN" "http://www.w3.org/Graphics/SVG/1.1/DTD/svg11.dtd">
<svg xmlns="http://www.w3.org/2000/svg" xmlns:xlink="http://www.w3.org/1999/xlink" version="1.1" width="270" height="270" viewBox="0 0 270 270" xml:space="preserve">
<desc>Created with Fabric.js 5.3.0</desc>
<defs>
</defs>
<g transform="matrix(0.4891304346 0 0 0.4891304348 135.75545879 135.7554938127)" id="Fce_z2l8orY3jXcsHm5pK"  >
<path style="stroke: none; stroke-width: 1; stroke-dasharray: none; stroke-linecap: butt; stroke-dashoffset: 0; stroke-linejoin: miter; stroke-miterlimit: 4; fill: rgb(0,24,68); fill-rule: nonzero; opacity: 1;"  transform=" translate(-299.9999285241, -300)" d="M 306 48 L 306 270 C 306 279.707 311.848 288.45799999999997 320.815 292.173 C 323.785 293.403 326.902 294.001 329.99399999999997 294.001 C 336.23999999999995 294.001 342.37899999999996 291.561 346.96999999999997 286.971 L 439.64 194.301 C 503.558 275.087 498.24199999999996 393.085 423.663 467.664 C 383.498 507.829 330.75800000000004 527.908 277.999 527.903 C 225.25300000000001 527.898 172.49 507.81800000000004 132.33500000000004 467.66400000000004 C 52.016000000000034 387.345 52.016000000000034 256.6550000000001 132.33500000000004 176.33600000000007 C 141.70700000000005 166.96300000000008 141.70700000000005 151.76800000000006 132.33500000000004 142.39500000000007 C 122.96200000000003 133.02300000000008 107.76700000000004 133.02300000000008 98.39400000000003 142.39500000000007 C 50.42 190.369 24 254.154 24 322 C 24 389.846 50.42 453.631 98.395 501.605 C 146.369 549.579 210.154 576 278 576 C 345.846 576 409.631 549.579 457.606 501.605 C 505.579 453.631 532 389.846 532 322 C 532 262.219 511.477 205.59699999999998 473.781 160.16 L 568.97 64.971 C 575.8340000000001 58.107000000000006 577.8870000000001 47.784000000000006 574.172 38.816 C 570.458 29.848 561.707 24 552 24 L 330 24 C 316.745 24 306 34.745 306 48 z M 354 72 L 494.05899999999997 72 L 423.66499999999996 142.39499999999998 C 423.66499999999996 142.39499999999998 423.66499999999996 142.39499999999998 423.664 142.396 C 423.664 142.396 423.664 142.396 423.664 142.396 L 354 212.059 L 354 72 z" stroke-linecap="round" />
</g>
</svg>