<?xml version="1.0" encoding="UTF-8" standalone="no" ?>
<!DOCTYPE svg PUBLIC "-//W3C//DTD SVG 1.1//EN" "http://www.w3.org/Graphics/SVG/1.1/DTD/svg11.dtd">
<svg xmlns="http://www.w3.org/2000/svg" xmlns:xlink="http://www.w3.org/1999/xlink" version="1.1" width="15984" height="10368" viewBox="0 0 7992 5184" xml:space="preserve">
<desc>Created with Fabric.js 5.3.0</desc>
<defs>
</defs>
<g transform="matrix(2.4963613825 0 0 1.6187845323 3994.1388344427 2591.2776602966)" id="wgCVtj2IzCLiQzh0Rqn6X"  >
<path style="stroke: rgb(0,4,120); stroke-width: 0; stroke-dasharray: none; stroke-linecap: butt; stroke-dashoffset: 0; stroke-linejoin: miter; stroke-miterlimit: 4; fill: rgb(255,255,255); fill-rule: nonzero; opacity: 1;"  transform=" translate(0, 0)" d="M -1593.11894 -1593.11894 L 1593.11894 -1593.11894 L 1593.11894 1593.11894 L -1593.11894 1593.11894 z" stroke-linecap="round" />
</g>
<g transform="matrix(0.9603055483 0 0 0.9603055483 3996.7560985076 2599.5885329084)" id="2bUUfuC5nMePTh6uzyPaa"  >
<path style="stroke: rgb(0,4,120); stroke-width: 0; stroke-dasharray: none; stroke-linecap: butt; stroke-dashoffset: 0; stroke-linejoin: miter; stroke-miterlimit: 4; fill: none; fill-rule: nonzero; opacity: 1;"  transform=" translate(0, 0)" d="M 0 -739.34801 C 408.1201 -739.34801 739.34801 -408.12010000000004 739.34801 0 C 739.34801 408.1201 408.12010000000004 739.34801 0 739.34801 C -408.1201 739.34801 -739.34801 408.12010000000004 -739.34801 0 C -739.34801 -408.1201 -408.12010000000004 -739.34801 0 -739.34801 z" stroke-linecap="round" />
</g>
<g transform="matrix(1.608976906 0 0 1.0434585232 3996.7560985076 2592)" id="miTCNEIppvvREs06O6LO3"  >
<path style="stroke: rgb(0,4,120); stroke-width: 1; stroke-dasharray: none; stroke-linecap: butt; stroke-dashoffset: 0; stroke-linejoin: miter; stroke-miterlimit: 4; fill: none; fill-rule: nonzero; opacity: 1;"  transform=" translate(-0.000005, -0.000005)" d="M -2482.17791 -2482.17791 L 2482.1779200000005 -2482.17791 L 2482.1779200000005 2482.1779200000005 L -2482.17791 2482.1779200000005 z" stroke-linecap="round" />
</g>
<g transform="matrix(1.1425925952 0 0 1.1425925952 7129.0928859877 2590.5201967465)" id="JwO5QNAmRuBokrpbZCYxb"  >
<path style="stroke: rgb(0,4,120); stroke-width: 1; stroke-dasharray: none; stroke-linecap: butt; stroke-dashoffset: 0; stroke-linejoin: miter; stroke-miterlimit: 4; fill: none; fill-rule: nonzero; opacity: 1;"  transform=" translate(0, 0)" d="M 0 -594.11894 C 327.95365 -594.11894 594.11894 -327.9536499999999 594.11894 0 C 594.11894 327.95365 327.9536499999999 594.11894 0 594.11894 C -327.95365 594.11894 -594.11894 327.9536499999999 -594.11894 0 C -594.11894 -327.95365 -327.9536499999999 -594.11894 0 -594.11894 z" stroke-linecap="round" />
</g>
<g transform="matrix(1.0710084693 0 0 1.0706505075 875.6008461255 2602.3899719862)" id="LYM2Ow1usD8KdDP_ecS-Z"  >
<path style="stroke: rgb(0,4,120); stroke-width: 1; stroke-dasharray: none; stroke-linecap: butt; stroke-dashoffset: 0; stroke-linejoin: miter; stroke-miterlimit: 4; fill: none; fill-rule: nonzero; opacity: 1;"  transform=" translate(0, 0)" d="M 0 -633.72687 C 349.81723 -633.72687 633.72687 -349.81722999999994 633.72687 0 C 633.72687 349.81723 349.81722999999994 633.72687 0 633.72687 C -349.81723 633.72687 -633.72687 349.81722999999994 -633.72687 0 C -633.72687 -349.81723 -349.81722999999994 -633.72687 0 -633.72687 z" stroke-linecap="round" />
</g>
<g transform="matrix(1.0594700382 0 0 1.9011448115 682.8707052283 2390.8976798374)" id="0YzDxQnrgEDeZZdvghfZy"  >
<path style="stroke: rgb(0,4,120); stroke-width: 0; stroke-dasharray: none; stroke-linecap: butt; stroke-dashoffset: 0; stroke-linejoin: miter; stroke-miterlimit: 4; fill: rgb(255,255,255); fill-rule: nonzero; opacity: 1;"  transform=" translate(0, 0)" d="M -541.30837 -541.30837 L 541.30837 -541.30837 L 541.30837 541.30837 L -541.30837 541.30837 z" stroke-linecap="round" />
</g>
<g transform="matrix(1.0840039755 0 0 1.9043478256 7274.7160271132 2404.5829709553)" id="yDEMsQ37XV2ZFRSYqqg25"  >
<path style="stroke: rgb(0,4,120); stroke-width: 0; stroke-dasharray: none; stroke-linecap: butt; stroke-dashoffset: 0; stroke-linejoin: miter; stroke-miterlimit: 4; fill: rgb(255,255,255); fill-rule: nonzero; opacity: 1;"  transform=" translate(0, 0)" d="M -506.10132 -506.10132 L 506.10132 -506.10132 L 506.10132 506.10132 L -506.10132 506.10132 z" stroke-linecap="round" />
</g>
<g transform="matrix(0.891495016 0 0 1.921787713 7427.5842665083 2588.5087770459)" id="9lpt_PbVxuqSzUeC1Rn4X"  >
<path style="stroke: rgb(0,4,120); stroke-width: 1; stroke-dasharray: none; stroke-linecap: butt; stroke-dashoffset: 0; stroke-linejoin: miter; stroke-miterlimit: 4; fill: none; fill-rule: nonzero; opacity: 1;"  transform=" translate(0, 0)" d="M -787.75771 -787.75771 L 787.7577 -787.75771 L 787.7577 787.7577 L -787.75771 787.7577 z" stroke-linecap="round" />
</g>
<g transform="matrix(1.1083485431 0 0 2.4943357964 584.5530577397 2588.5087759801)" id="pnnjMasMca-ZO-lGvreGt"  >
<path style="stroke: rgb(0,4,120); stroke-width: 1; stroke-dasharray: none; stroke-linecap: butt; stroke-dashoffset: 0; stroke-linejoin: miter; stroke-miterlimit: 4; fill: none; fill-rule: nonzero; opacity: 1;"  transform=" translate(0, 0)" d="M -607.32159 -607.32159 L 607.32158 -607.32159 L 607.32158 607.32158 L -607.32159 607.32158 z" stroke-linecap="round" />
</g>
<g transform="matrix(0.9131968273 0 0 0.9336249081 3996.7560985076 2599.3385329084)" id="sjZadVX1rOIGh_5CAY_iR"  >
<path style="stroke: rgb(0,4,120); stroke-width: 1; stroke-dasharray: none; stroke-linecap: butt; stroke-dashoffset: 0; stroke-linejoin: miter; stroke-miterlimit: 4; fill: none; fill-rule: nonzero; opacity: 1;"  transform=" translate(0, 0)" d="M 0 -765.75331 C 422.69583 -765.75331 765.75331 -422.69583000000006 765.75331 0 C 765.75331 422.69583 422.69583000000006 765.75331 0 765.75331 C -422.69583 765.75331 -765.75331 422.69583000000006 -765.75331 0 C -765.75331 -422.69583 -422.69583000000006 -765.75331 0 -765.75331 z" stroke-linecap="round" />
</g>
<g transform="matrix(0.0006276995 0 0 3.277219206 3995.9203440528 2582.0091998284)" id="sa8W_ZN66Wrer78zbqTXP"  >
<path style="stroke: rgb(0,4,120); stroke-width: 0; stroke-dasharray: none; stroke-linecap: butt; stroke-dashoffset: 0; stroke-linejoin: miter; stroke-miterlimit: 4; fill: rgb(0,4,120); fill-rule: nonzero; opacity: 1;"  transform=" translate(0, 0)" d="M -796.55947 -796.55947 L 796.55947 -796.55947 L 796.55947 796.55947 L -796.55947 796.55947 z" stroke-linecap="round" />
</g>
<g transform="matrix(0.3170532803 0 0 3.7258064501 -145.6699043897 2683.8127843724)" id="bMS4GvmXhwt1XFJSkl2HI"  >
<path style="stroke: rgb(86,204,244); stroke-width: 0; stroke-dasharray: none; stroke-linecap: butt; stroke-dashoffset: 0; stroke-linejoin: miter; stroke-miterlimit: 4; fill: rgb(255,255,255); fill-rule: nonzero; opacity: 1;"  transform=" translate(0, 0)" d="M -463.95506 -463.95506 L 463.95505 -463.95506 L 463.95505 463.95505 L -463.95506 463.95505 z" stroke-linecap="round" />
</g>
<g transform="matrix(1 0 0 1 3996.7560985076 5209.6206090889)" id="7uCmr9hfspkby3S4kouS7"  >
<path style="stroke: rgb(180,135,92); stroke-width: 0; stroke-dasharray: none; stroke-linecap: butt; stroke-dashoffset: 0; stroke-linejoin: miter; stroke-miterlimit: 4; fill: rgb(255,255,255); fill-rule: nonzero; opacity: 1;"  transform=" translate(-27.0491784408, -27.0491784408)" d="M 0 0 L 54.09836 0 L 54.09836 54.09836 L 0 54.09836 z" stroke-linecap="round" />
</g>
<g transform="matrix(0.2984484103 0 0 3.7530737436 8137.4936 2644.0805920657)" id="tjrPvbVYNEIracQNiIR7K"  >
<path style="stroke: rgb(68,178,248); stroke-width: 0; stroke-dasharray: none; stroke-linecap: butt; stroke-dashoffset: 0; stroke-linejoin: miter; stroke-miterlimit: 4; fill: rgb(255,255,255); fill-rule: nonzero; opacity: 1;"  transform=" translate(0, 0)" d="M -487.5 -487.5 L 487.5 -487.5 L 487.5 487.5 L -487.5 487.5 z" stroke-linecap="round" />
</g>
<g transform="matrix(1 0 0 1 3996.7560985076 -64.42508996)" id="za_vuB34UF_IwcFtBDzcn"  >
<path style="stroke: rgb(216,73,17); stroke-width: 0; stroke-dasharray: none; stroke-linecap: butt; stroke-dashoffset: 0; stroke-linejoin: miter; stroke-miterlimit: 4; fill: rgb(255,255,255); fill-rule: nonzero; opacity: 1;"  transform=" translate(-65.8536593119, -65.8536593119)" d="M 0 0 L 131.70731 0 L 131.70731 131.70731 L 0 131.70731 z" stroke-linecap="round" />
</g>
</svg>